<svg width="34" height="24" viewBox="0 0 34 24" fill="none" xmlns="http://www.w3.org/2000/svg">
<path d="M2.57012 23.986H31.4305C32.8503 23.986 34.0006 22.835 34.0006 21.4158V2.57012C34.0006 1.15091 32.8503 0 31.4305 0H2.57012C1.15091 0 0 1.15091 0 2.57012V21.4158C0 22.835 1.15091 23.986 2.57012 23.986ZM18.9789 22.1819H15.0204V19.7363H18.9789V22.1819ZM28.412 1.86268H32.3705V4.30821H28.412V1.86268ZM28.2948 19.7363H32.2539V22.1819H28.2948V19.7363ZM21.7742 1.86268H25.7333V4.30821H21.7742V1.86268ZM21.6576 19.7363H25.6167V22.1819H21.6576V19.7363ZM15.1376 1.86268H19.0961V4.30821H15.1376V1.86268ZM14.0274 7.77081L19.9726 10.7437C21.3523 11.4339 21.3523 12.5527 19.9726 13.2423L14.0274 16.2158C12.6477 16.9053 11.5282 16.2139 11.5282 14.6701V9.31585C11.5276 7.77266 12.6471 7.08125 14.0274 7.77081ZM8.50046 1.86268H12.4596V4.30821H8.50046V1.86268ZM8.38389 19.7363H12.3424V22.1819H8.38389V19.7363ZM1.86329 1.86268H5.8224V4.30821H1.86329V1.86268ZM1.74672 19.7363H5.70583V22.1819H1.74672V19.7363Z" fill="#040F2E"/>
</svg>
