<svg width="29" height="31" viewBox="0 0 29 31" fill="none" xmlns="http://www.w3.org/2000/svg">
<path d="M0 28.4694H28.4697V8.85693H16.9477L20.1376 5.66703L17.8177 3.34766L19.5455 1.61987C19.9162 1.24917 19.9162 0.648733 19.5455 0.278029C19.1748 -0.0926762 18.5743 -0.0926762 18.2036 0.278029L15.1333 3.34766L17.4533 5.66703L14.3722 8.74806L8.60985 2.41839C8.25682 2.03059 7.65639 2.00209 7.26928 2.35512C6.88148 2.70814 6.85368 3.30857 7.20601 3.69568L11.9048 8.85693H0V28.4694ZM3.79592 12.653H24.6737V24.6735H3.79592V12.653Z" fill="#040F2E"/>
<path d="M28.4697 29.1021H0V31H28.4697V29.1021Z" fill="#040F2E"/>
</svg>
