<svg width="100" height="100" viewBox="0 0 100 100" fill="none" xmlns="http://www.w3.org/2000/svg">
<path d="M4.88818e-05 15C4.88818e-05 6.71575 6.7158 0 15 0H65.0001C84.3301 0 100 15.6701 100 35V85C100 93.2845 93.2845 100 85 100H35C15.6701 100 4.88818e-05 84.33 4.88818e-05 65V15Z" fill="#FFAE31"/>
<g clip-path="url(#clip0)">
<path d="M50.2512 19.0955C33.3219 19.0955 19.598 32.8194 19.598 49.7487C19.598 66.678 33.3219 80.4019 50.2512 80.4019C67.1805 80.4019 80.9044 66.678 80.9044 49.7487C80.8865 32.827 67.1731 19.1136 50.2512 19.0955ZM63.1605 50.7254C62.9483 51.151 62.6033 51.4961 62.1775 51.7083V51.7192L44.6614 60.4774C43.5797 61.0178 42.2647 60.5792 41.724 59.4975C41.5703 59.1899 41.4912 58.8505 41.4931 58.5068V40.9907C41.4926 39.7814 42.4724 38.8007 43.6816 38.8001C44.0217 38.8 44.3572 38.879 44.6614 39.031L62.1775 47.7891C63.2598 48.3285 63.7 49.6431 63.1605 50.7254Z" fill="white"/>
</g>
<defs>
<clipPath id="clip0">
<rect width="61.3065" height="61.3065" fill="white" transform="translate(19.598 19.0955)"/>
</clipPath>
</defs>
</svg>
