<svg id="_21" data-name="21" xmlns="http://www.w3.org/2000/svg" viewBox="0 0 119 131"><defs><style>.cls-1{fill:#fff100;}.cls-1,.cls-2{fill-rule:evenodd;}.cls-2{fill:#221f20;}</style></defs><title>logo</title><path class="cls-1" d="M68.3,37A43.25,43.25,0,1,1,25.05,80.22,43.25,43.25,0,0,1,68.3,37Z"/><path class="cls-2" d="M88.12,8.11l1.25-.29,3.3,14.09L92,23.05,77.46,26.46ZM54.56,71.53a11,11,0,1,1-11,11,11,11,0,0,1,11-11Zm-3.41,5.2,9.21,5.82-9.21,5.82ZM14.08,56.88h0v-5L20,41.64H32.62L23.76,56.88H34.41l8.86-15.24H55.84L47,56.88H59.13L68,41.64H80.56L71.7,56.88H83.19L92,41.64h3V56.88h0v51.34h-81ZM26,64.44H83.12v36.22H26ZM14.11,36.9a4.4,4.4,0,1,1-4.4,4.39,4.4,4.4,0,0,1,4.4-4.39ZM10.58,26.26,20.34,24,13,36.65Zm22-5.14L47.13,17.7,36.47,36.06,21.92,39.47Zm27-6.33,14.56-3.4L63.48,29.74l-14.56,3.4Z"/></svg>